ply
format ascii 1.0
comment Created by Blender 2.77 (sub 0) - www.blender.org, source file: ''
element vertex 507
property float x
property float y
property float z
property float nx
property float ny
property float nz
element face 967
property list uchar uint vertex_indices
end_header
-0.347932 -3.469167 -0.457432 0.969298 -0.245552 -0.011811
-0.316682 -3.398855 -0.605870 0.607624 -0.608478 -0.510392
-0.254182 -3.383230 -0.457432 0.800104 -0.599841 -0.002838
-1.316682 -3.398855 -0.605870 -0.607624 -0.608478 -0.510392
-1.285432 -3.469167 -0.457432 -0.969298 -0.245552 -0.011811
-1.379182 -3.383230 -0.457432 -0.800104 -0.599841 -0.002838
-0.269807 -3.289480 -0.644932 0.680166 -0.488815 -0.546251
-0.191682 -3.273855 -0.457432 0.868221 -0.496109 -0.004730
-1.363557 -3.289480 -0.644932 -0.680166 -0.488815 -0.546251
-1.441682 -3.273855 -0.457432 -0.868221 -0.496109 -0.004730
-0.465119 -3.328542 -0.723057 0.119327 -0.476272 -0.871151
-1.168244 -3.328542 -0.723057 -0.119327 -0.476272 -0.871151
-0.379182 -3.476980 -0.535557 0.728996 -0.193426 -0.656575
-0.465119 -3.430105 -0.668370 0.099490 -0.652211 -0.751457
-1.168244 -3.430105 -0.668370 -0.099490 -0.652211 -0.751457
-1.254182 -3.476980 -0.535557 -0.728996 -0.193426 -0.656575
-0.465119 -3.492605 -0.566807 0.031404 -0.252907 -0.966948
-0.613557 -3.453542 -0.605870 -0.456282 -0.710135 -0.536149
-1.019807 -3.453542 -0.605870 0.456282 -0.710135 -0.536149
-1.168244 -3.492605 -0.566807 -0.031404 -0.252907 -0.966948
-0.660432 -3.359792 -0.644932 -0.553850 -0.540635 -0.633198
-0.972932 -3.359792 -0.644932 0.553850 -0.540635 -0.633198
-0.676057 -3.453542 -0.457432 -0.689871 -0.723899 -0.004028
-0.957307 -3.453542 -0.457432 0.689871 -0.723899 -0.004028
-0.894807 -3.367605 -0.457432 0.809717 -0.586749 -0.006989
-0.543244 -3.508230 -0.535557 -0.650563 -0.320963 -0.688253
-1.090119 -3.508230 -0.535557 0.650563 -0.320963 -0.688253
-0.574494 -3.508230 -0.457432 -0.952055 -0.305704 -0.010163
-0.613557 -3.453542 -0.308995 -0.455947 -0.720664 0.522202
-1.019807 -3.453542 -0.308995 0.455947 -0.720664 0.522202
-1.058869 -3.508230 -0.457432 0.952055 -0.305704 -0.010163
-0.738557 -3.367605 -0.457432 -0.809717 -0.586749 -0.006989
-0.972932 -3.359792 -0.262120 0.530595 -0.571703 0.625751
-0.465119 -3.430105 -0.246495 0.103061 -0.664388 0.740196
-0.660432 -3.359792 -0.262120 -0.530595 -0.571703 0.625751
-1.168244 -3.430105 -0.246495 -0.103061 -0.664388 0.740196
-1.168244 -3.328542 -0.183995 -0.125736 -0.525254 0.841578
-0.465119 -3.492605 -0.340245 0.025727 -0.231147 0.972564
-0.543244 -3.508230 -0.371495 -0.664357 -0.305582 0.682058
-1.168244 -3.492605 -0.340245 -0.025727 -0.231147 0.972564
-0.379182 -3.476980 -0.371495 0.736381 -0.180273 0.652089
-1.254182 -3.476980 -0.371495 -0.736381 -0.180273 0.652089
-1.316682 -3.398855 -0.308995 -0.610218 -0.618061 0.495590
-0.316682 -3.398855 -0.308995 0.610218 -0.618061 0.495590
-0.465119 -3.328542 -0.183995 0.125736 -0.525254 0.841578
-1.363557 -3.289480 -0.262120 -0.668203 -0.514786 0.537095
-0.269807 -3.289480 -0.262120 0.668203 -0.514786 0.537095
-0.340119 -3.484792 -0.457432 0.964446 -0.263863 -0.012665
-1.293244 -3.484792 -0.457432 -0.964446 -0.263863 -0.012665
-1.261994 -3.492605 -0.363682 -0.721610 -0.222388 0.655568
-0.371369 -3.492605 -0.363682 0.721610 -0.222388 0.655568
-1.168244 -3.516042 -0.324620 -0.043123 -0.341441 0.938902
-0.465119 -3.516042 -0.324620 0.043153 -0.341441 0.938902
-1.090119 -3.508230 -0.371495 0.664357 -0.305582 0.682058
-1.082307 -3.531667 -0.363682 0.623676 -0.464675 0.628529
-0.551057 -3.531667 -0.363682 -0.623676 -0.464675 0.628529
-1.043244 -3.531667 -0.457432 0.926969 -0.374889 -0.012940
-0.551057 -3.531667 -0.543370 -0.615864 -0.464095 -0.636616
-0.590119 -3.531667 -0.457432 -0.926969 -0.374859 -0.012940
-1.082307 -3.531667 -0.543370 0.615864 -0.464095 -0.636616
-0.465119 -3.516042 -0.582432 0.042543 -0.337474 -0.940336
-1.168244 -3.516042 -0.582432 -0.042543 -0.337474 -0.940336
-0.371369 -3.492605 -0.543370 0.715171 -0.222694 -0.662465
-1.261994 -3.492605 -0.543370 -0.715171 -0.222724 -0.662465
-0.465119 -3.539480 -0.457432 0.183599 -0.982971 -0.005310
-1.168244 -3.539480 -0.457432 -0.183599 -0.982971 -0.005310
-0.652619 -3.344167 -1.629307 0.155370 -0.632282 -0.758965
-0.816682 -3.289480 -1.683995 0.000000 -0.252266 -0.967650
-0.636994 -3.266042 -1.668370 0.159551 -0.152898 -0.975249
-0.980744 -3.344167 -1.629307 -0.155370 -0.632282 -0.758965
-0.816682 -3.351980 -1.644932 0.000000 -0.631550 -0.775323
-0.582307 -3.344167 -1.613682 0.350200 -0.684683 -0.639149
-0.488557 -3.234792 -1.644932 0.526658 -0.161107 -0.834651
-1.051057 -3.344167 -1.613682 -0.350200 -0.684683 -0.639149
-0.996369 -3.266042 -1.668370 -0.159551 -0.152898 -0.975249
-0.449494 -3.242605 -1.590245 0.945708 -0.197699 -0.257851
-1.183869 -3.242605 -1.590245 -0.945708 -0.197699 -0.257851
-1.144807 -3.234792 -1.644932 -0.526658 -0.161107 -0.834651
-0.465119 -3.281667 -1.394932 0.972808 -0.208716 0.100314
-0.551057 -3.375417 -1.519932 0.555650 -0.799982 -0.226356
-1.082307 -3.375417 -1.519932 -0.555650 -0.799982 -0.226356
-1.168244 -3.281667 -1.394932 -0.972808 -0.208716 0.100314
-0.504182 -3.281667 -1.137120 0.955718 -0.156468 0.249184
-0.566682 -3.398855 -1.402745 0.565172 -0.824396 -0.029725
-1.066682 -3.398855 -1.402745 -0.565172 -0.824396 -0.029725
-1.129182 -3.281667 -1.137120 -0.955718 -0.156468 0.249184
-0.613557 -3.273855 -0.887120 0.891537 -0.309458 -0.330668
-0.418244 -3.383230 -0.746495 0.384136 -0.728538 -0.567125
-0.691682 -3.523855 -0.801182 0.040162 -0.961394 -0.272134
-1.215119 -3.383230 -0.746495 -0.384136 -0.728538 -0.567125
-1.019807 -3.273855 -0.887120 -0.891537 -0.309458 -0.330668
-0.941682 -3.523855 -0.801182 -0.040162 -0.961394 -0.272134
-0.183869 -3.250417 -0.738682 0.587481 -0.196966 -0.784875
-0.379182 -3.242605 -0.840245 0.348827 0.008148 -0.937132
-1.449494 -3.250417 -0.738682 -0.587481 -0.196966 -0.784875
-1.433869 -3.336355 -0.644932 -0.499130 -0.780663 -0.376049
-0.090119 -3.312917 -0.496495 0.566546 -0.759819 -0.318796
-0.199494 -3.336355 -0.644932 0.499130 -0.780663 -0.376049
-1.543244 -3.312917 -0.496495 -0.566546 -0.759819 -0.318796
0.042693 -3.305105 -0.269932 0.845119 -0.298502 0.443403
0.011443 -3.156667 -0.551182 0.906980 0.128941 -0.400922
-1.676057 -3.305105 -0.269932 -0.845119 -0.298502 0.443403
-1.558869 -3.367605 -0.324620 -0.460707 -0.875637 -0.144810
-0.105744 -3.336355 -0.215245 0.517045 -0.212531 0.829127
-0.074494 -3.367605 -0.324620 0.460707 -0.875637 -0.144810
-1.527619 -3.336355 -0.215245 -0.517045 -0.212531 0.829127
-1.504182 -3.437917 -0.285557 -0.480117 -0.857814 -0.183264
-0.324494 -3.398855 -0.098057 0.597552 -0.164586 0.784722
-0.129182 -3.437917 -0.285557 0.480117 -0.857814 -0.183264
-1.308869 -3.398855 -0.098057 -0.597552 -0.164586 0.784722
-1.254182 -3.508230 -0.152745 -0.308451 -0.951201 0.003845
-0.504182 -3.547292 -0.058995 0.266579 -0.939146 0.216590
-0.379182 -3.508230 -0.152745 0.308451 -0.951201 0.003845
-1.129182 -3.547292 -0.058995 -0.266579 -0.939146 0.216590
-0.660432 -3.469167 0.019130 -0.605060 -0.209754 0.768029
-0.496369 -3.445730 0.058193 0.231269 -0.175054 0.956999
-0.972932 -3.469167 0.019130 0.605060 -0.209754 0.768029
-1.019807 -3.562917 -0.082432 0.157384 -0.973449 0.166021
-0.754182 -3.461355 -0.207432 -0.824183 -0.147313 0.546770
-0.613557 -3.562917 -0.082432 -0.157384 -0.973449 0.166021
-0.879182 -3.461355 -0.207432 0.824183 -0.147313 0.546770
-0.918244 -3.555105 -0.269932 0.061098 -0.997803 -0.025239
-0.816682 -3.453542 -0.269932 0.000000 -0.267281 0.963591
-0.715119 -3.555105 -0.269932 -0.061098 -0.997803 -0.025239
-0.816682 -3.531667 -0.348057 0.000000 -0.996551 -0.082736
-0.566682 -3.469167 -0.230870 0.258156 -0.957762 -0.126499
-0.652619 -3.484792 -0.285557 0.367840 -0.885556 -0.283608
-1.066682 -3.469167 -0.230870 -0.258156 -0.957762 -0.126499
-0.488557 -3.453542 -0.223057 0.149022 -0.976714 -0.154180
-0.386994 -3.430105 -0.262120 0.219001 -0.975005 0.037141
-1.144807 -3.453542 -0.223057 -0.149022 -0.976714 -0.154180
-0.215119 -3.375417 -0.324620 0.225410 -0.904996 -0.360759
-1.246369 -3.430105 -0.262120 -0.219001 -0.975005 0.037141
-0.176057 -3.359792 -0.402745 0.358806 -0.925748 -0.119175
-1.418244 -3.375417 -0.324620 -0.225410 -0.904996 -0.360759
-0.191682 -3.359792 -0.512120 0.460219 -0.872280 -0.165105
-1.457307 -3.359792 -0.402745 -0.358806 -0.925748 -0.119175
-0.324494 -3.383230 -0.637120 0.427900 -0.815577 -0.389508
-1.441682 -3.359792 -0.512120 -0.460219 -0.872280 -0.165105
-0.441682 -3.414480 -0.683995 0.332163 -0.868984 -0.366680
-1.308869 -3.383230 -0.637120 -0.427900 -0.815577 -0.389508
-0.613557 -3.453542 -0.605870 -0.152196 -0.954924 -0.254830
-1.191682 -3.414480 -0.683995 -0.332163 -0.868984 -0.366680
-0.816682 -3.437917 -0.652745 0.000000 -0.997925 0.064272
-1.019807 -3.453542 -0.605870 0.152196 -0.954924 -0.254830
-0.691682 -3.476980 -0.394932 0.031587 -0.983459 -0.178167
-0.941682 -3.476980 -0.394932 -0.031587 -0.983459 -0.178167
-0.816682 -3.476980 -0.488682 0.000000 -0.975036 -0.221992
-0.683869 -3.469167 -0.488682 -0.200568 -0.970306 -0.134953
-0.949494 -3.469167 -0.488682 0.200568 -0.970306 -0.134953
-0.652619 -3.461355 -0.558995 -0.239296 -0.923032 -0.301187
-0.980744 -3.461355 -0.558995 0.239296 -0.923032 -0.301187
-0.754182 -3.406667 -1.582432 -0.058870 -0.923734 -0.378430
-0.879182 -3.406667 -1.582432 0.058870 -0.923734 -0.378430
-0.699494 -3.422292 -1.535557 0.130711 -0.938810 -0.318644
-0.933869 -3.422292 -1.535557 -0.130711 -0.938810 -0.318644
-0.707307 -3.445730 -1.418370 0.145940 -0.981933 -0.120182
-0.605744 -3.422292 -1.144932 0.593677 -0.797388 0.108158
-0.699494 -3.445730 -1.387120 0.181524 -0.982330 -0.045198
-0.933869 -3.445730 -1.387120 -0.181524 -0.982330 -0.045198
-1.027619 -3.422292 -1.144932 -0.593677 -0.797388 0.108158
-0.926057 -3.445730 -1.418370 -0.145940 -0.981933 -0.120182
-0.816682 -3.453542 -1.027745 0.000000 -0.879452 -0.475936
-0.738557 -3.461355 -1.144932 0.134098 -0.990936 0.006256
-0.730744 -3.453542 -0.988682 0.500259 -0.751946 -0.429243
-0.894807 -3.461355 -1.144932 -0.134098 -0.990936 0.006256
-0.816682 -3.461355 -1.144932 0.000000 -1.000000 0.000000
-0.816682 -3.445730 -1.379307 0.000000 -0.999390 -0.034059
-0.816682 -3.445730 -1.465245 0.000000 -0.809595 -0.586963
-0.691682 -3.461355 -0.926182 0.930387 -0.344798 -0.124241
-0.722932 -3.492605 -0.973057 0.583575 -0.423475 -0.692862
-0.910432 -3.492605 -0.973057 -0.583575 -0.423475 -0.692862
-0.941682 -3.461355 -0.926182 -0.930387 -0.344798 -0.124241
-0.902619 -3.453542 -0.988682 -0.500259 -0.751946 -0.429243
-0.715119 -3.453542 -0.848057 0.493118 -0.800226 -0.341197
-0.683869 -3.508230 -0.926182 0.930570 -0.280404 -0.235328
-0.949494 -3.508230 -0.926182 -0.930570 -0.280404 -0.235328
-0.918244 -3.453542 -0.848057 -0.493118 -0.800226 -0.341197
-0.777619 -3.492605 -0.824620 -0.240516 -0.203558 0.949034
-0.816682 -3.453542 -0.840245 -0.176946 -0.842708 0.508408
-0.855744 -3.492605 -0.824620 0.240516 -0.203558 0.949034
-0.926057 -3.492605 -0.832432 -0.628590 -0.117740 0.768761
-0.816682 -3.508230 -0.887120 -0.194952 -0.548936 0.812799
-0.816682 -3.461355 -0.894932 -0.999969 0.000000 0.000000
-0.816682 -3.492605 -1.019932 0.000000 -0.501053 -0.865383
-0.816682 -3.516042 -0.988682 0.000000 -0.876400 -0.481521
-0.894807 -3.516042 -0.949620 -0.183294 -0.789026 -0.586352
-0.769807 -3.523855 -0.848057 -0.185736 -0.781487 0.595599
-0.863557 -3.523855 -0.848057 0.185736 -0.781487 0.595599
-0.722932 -3.523855 -0.855870 0.361095 -0.804651 0.471267
-0.707307 -3.492605 -0.832432 0.628590 -0.117740 0.768761
-0.910432 -3.523855 -0.855870 -0.361095 -0.804651 0.471267
-0.926057 -3.539480 -0.926182 -0.448805 -0.836360 -0.314707
-0.738557 -3.516042 -0.949620 0.183294 -0.789026 -0.586352
-0.707307 -3.539480 -0.926182 0.448805 -0.836360 -0.314707
-0.816682 -3.539480 -0.902745 0.000000 -0.987457 0.157842
-0.652619 -3.422292 -0.941807 0.775140 -0.630573 0.038667
-0.980744 -3.422292 -0.941807 -0.775140 -0.630573 0.038667
-0.996369 -3.422292 -1.012120 -0.650655 -0.744652 0.148747
-0.636994 -3.422292 -1.012120 0.650655 -0.744652 0.148747
-0.558869 -3.266042 -1.012120 0.927763 -0.120884 0.352977
-1.074494 -3.266042 -1.012120 -0.927763 -0.120884 0.352977
-0.582307 -3.266042 -0.949620 0.930601 -0.126347 0.343516
-1.051057 -3.266042 -0.949620 -0.930601 -0.126347 0.343516
-0.722932 -3.437917 -1.441807 -0.136845 -0.838588 -0.527268
-0.910432 -3.437917 -1.441807 0.136845 -0.838588 -0.527268
-0.816682 -3.430105 -1.473057 0.000000 -0.273232 -0.961943
-0.722932 -3.422292 -1.519932 -0.635121 -0.771203 0.042756
-0.910432 -3.422292 -1.519932 0.635121 -0.771203 0.042756
-0.769807 -3.398855 -1.566807 -0.414106 -0.701621 0.579821
-0.863557 -3.398855 -1.566807 0.414106 -0.701621 0.579821
-0.816682 -3.398855 -1.590245 0.000000 -0.938017 -0.346507
-0.816682 -3.398855 -1.574620 0.000000 -0.829310 0.558763
-0.816682 -3.344167 -1.558995 0.000000 -0.845851 0.533403
-0.863557 -3.344167 -1.551182 0.295846 -0.828761 0.474960
-0.722932 -3.351980 -1.512120 -0.673757 -0.729850 0.115452
-0.769807 -3.344167 -1.551182 -0.295846 -0.828761 0.474960
-0.910432 -3.351980 -1.512120 0.673757 -0.729850 0.115452
-0.722932 -3.375417 -1.449620 -0.517655 -0.486007 -0.704123
-0.910432 -3.375417 -1.449620 0.517655 -0.486007 -0.704123
-0.816682 -3.367605 -1.480870 0.000000 -0.715171 -0.698935
-0.629182 -3.484792 -0.543370 -0.010102 -0.997467 -0.069979
-0.644807 -3.492605 -0.480870 0.158055 -0.983825 -0.084231
-1.004182 -3.484792 -0.543370 0.010102 -0.997467 -0.069979
-0.988557 -3.492605 -0.480870 -0.158055 -0.983825 -0.084231
-0.636994 -3.492605 -0.402745 0.293405 -0.954070 -0.060152
-0.996369 -3.492605 -0.402745 -0.293405 -0.954070 -0.060152
-0.605744 -3.492605 -0.324620 0.158788 -0.981536 -0.106449
-1.027619 -3.492605 -0.324620 -0.158788 -0.981536 -0.106449
-1.043244 -3.492605 -0.590245 0.031709 -0.975005 -0.219794
-0.441682 -3.453542 -0.637120 0.184454 -0.964995 -0.186316
-0.590119 -3.492605 -0.590245 -0.031709 -0.975005 -0.219794
-1.191682 -3.453542 -0.637120 -0.184454 -0.964995 -0.186316
-0.340119 -3.430105 -0.598057 0.298990 -0.953581 -0.035615
-1.293244 -3.430105 -0.598057 -0.299020 -0.953581 -0.035615
-0.238557 -3.391042 -0.504307 0.294290 -0.950224 -0.102023
-1.394807 -3.391042 -0.504307 -0.294290 -0.950224 -0.102023
-0.230744 -3.398855 -0.410557 0.177587 -0.982208 -0.060762
-1.402619 -3.398855 -0.410557 -0.177587 -0.982208 -0.060762
-1.379182 -3.406667 -0.348057 -0.294351 -0.955657 0.004639
-0.254182 -3.406667 -0.348057 0.294351 -0.955657 0.004639
-1.238557 -3.484792 -0.301182 -0.088687 -0.987884 -0.127171
-0.480744 -3.469167 -0.269932 0.203619 -0.973571 0.103183
-0.394807 -3.484792 -0.301182 0.088687 -0.987884 -0.127171
-1.152619 -3.469167 -0.269932 -0.203619 -0.973571 0.103183
-0.543244 -3.484792 -0.277745 0.143498 -0.984893 0.096591
-1.090119 -3.484792 -0.277745 -0.143498 -0.984893 0.096591
-0.535432 -3.476980 -0.301182 0.288583 -0.916013 -0.278542
-1.097932 -3.476980 -0.301182 -0.288583 -0.916013 -0.278542
-1.051057 -3.469167 -0.340245 -0.450819 -0.761376 -0.465835
-0.480744 -3.461355 -0.293370 0.113315 -0.942564 -0.314188
-1.152619 -3.461355 -0.293370 -0.113315 -0.942564 -0.314188
-0.402619 -3.461355 -0.308995 -0.274056 -0.439100 -0.855586
-1.230744 -3.461355 -0.308995 0.274056 -0.439100 -0.855586
-0.285432 -3.391042 -0.363682 -0.142308 -0.800165 -0.582629
-1.347932 -3.391042 -0.363682 0.142308 -0.800165 -0.582629
-0.261994 -3.383230 -0.418370 -0.422926 -0.899716 -0.107761
-1.371369 -3.383230 -0.418370 0.422926 -0.899716 -0.107761
-0.269807 -3.383230 -0.488682 -0.192145 -0.962523 0.191351
-1.363557 -3.383230 -0.488682 0.192145 -0.962523 0.191351
-0.355744 -3.414480 -0.582432 -0.165288 -0.775109 0.609790
-1.277619 -3.414480 -0.582432 0.165288 -0.775109 0.609790
-0.441682 -3.437917 -0.613682 0.143071 -0.816919 0.558672
-1.191682 -3.437917 -0.613682 -0.143071 -0.816919 0.558672
-0.574494 -3.469167 -0.574620 0.432264 -0.687643 0.583300
-1.058869 -3.469167 -0.574620 -0.432264 -0.687643 0.583300
-0.613557 -3.461355 -0.527745 0.688040 -0.661397 0.298471
-1.019807 -3.461355 -0.527745 -0.688040 -0.661397 0.298441
-0.621369 -3.469167 -0.402745 0.789361 -0.579302 -0.203192
-0.582307 -3.469167 -0.340245 0.450819 -0.761376 -0.465835
-1.011994 -3.469167 -0.402745 -0.789361 -0.579302 -0.203192
-0.621369 -3.461355 -0.473057 0.801630 -0.597674 0.010987
-1.011994 -3.461355 -0.473057 -0.801630 -0.597674 0.010987
-0.707307 -3.320730 -0.238682 -0.460250 -0.212683 0.861904
-0.816682 -3.312917 -0.293370 0.000000 -0.511612 0.859188
-0.926057 -3.320730 -0.238682 0.460250 -0.212683 0.861904
-0.621369 -3.328542 -0.035557 -0.479202 0.712882 0.511948
-1.011994 -3.328542 -0.035557 0.479202 0.712882 0.511948
-1.136994 -3.445730 0.058193 -0.231269 -0.175054 0.956999
-1.152619 -3.305105 -0.012120 -0.121708 0.749840 0.650288
-0.480744 -3.305105 -0.012120 0.121708 0.749840 0.650288
-1.301057 -3.266042 -0.144932 -0.227485 0.428266 0.874508
-0.332307 -3.266042 -0.144932 0.227485 0.428266 0.874508
-1.496369 -3.203542 -0.246495 -0.345531 0.219123 0.912442
-0.019807 -3.172292 -0.293370 0.695700 0.421827 0.581378
-0.136994 -3.203542 -0.246495 0.345531 0.219123 0.912442
-1.613557 -3.172292 -0.293370 -0.695700 0.421827 0.581378
-1.644807 -3.156667 -0.551182 -0.906980 0.128941 -0.400922
-1.590119 -3.086355 -0.535557 -0.930204 0.202338 -0.306192
-0.215119 -3.125417 -0.699620 0.544328 0.053316 -0.837153
-0.043244 -3.086355 -0.535557 0.930204 0.202338 -0.306192
-1.418244 -3.125417 -0.699620 -0.544328 0.053316 -0.837153
-0.379182 -3.180105 -0.793370 0.471969 0.176794 -0.863674
-1.254182 -3.180105 -0.793370 -0.471969 0.176794 -0.863674
-0.816682 -2.992605 -1.183995 0.000000 0.636708 -0.771081
-0.691682 -3.070730 -1.238682 0.277078 0.907804 -0.314737
-0.816682 -3.031667 -1.269932 0.000000 0.976959 -0.213294
-0.941682 -3.070730 -1.238682 -0.277078 0.907804 -0.314737
-0.996369 -2.969167 -1.113682 -0.689322 0.278603 -0.668691
-0.676057 -3.078542 -1.457432 0.151372 0.976867 -0.150975
-0.816682 -3.055105 -1.504307 0.000000 0.954741 -0.297342
-0.957307 -3.078542 -1.457432 -0.151372 0.976867 -0.150975
-0.652619 -3.148855 -1.644932 0.067476 0.618122 -0.783166
-0.816682 -3.172292 -1.676182 0.000000 0.471603 -0.881802
-0.980744 -3.148855 -1.644932 -0.067476 0.618122 -0.783166
-0.488557 -3.109792 -1.613682 0.555071 0.681967 -0.476211
-1.144807 -3.109792 -1.613682 -0.555071 0.681967 -0.476211
-0.527619 -3.094167 -1.410557 0.620380 0.779809 0.083468
-1.105744 -3.094167 -1.410557 -0.620380 0.779809 0.083468
-0.566682 -3.101980 -1.199620 0.779839 0.625843 -0.010498
-1.066682 -3.101980 -1.199620 -0.779839 0.625843 -0.010498
-0.636994 -2.969167 -1.113682 0.689322 0.278603 -0.668691
-0.582307 -3.117605 -1.051182 0.895657 0.362407 0.257729
-1.051057 -3.117605 -1.051182 -0.895657 0.362407 0.257729
-0.597932 -3.141042 -0.980870 0.978698 -0.061495 -0.195837
-1.035432 -3.141042 -0.980870 -0.978698 -0.061495 -0.195837
-1.027619 -3.180105 -0.926182 -0.887173 -0.433607 -0.157720
-0.613557 -3.211355 -0.871495 0.785699 -0.236732 -0.571459
-1.019807 -3.211355 -0.871495 -0.785699 -0.236732 -0.571459
-1.254182 -3.242605 -0.840245 -0.348827 0.008148 -0.937132
-0.480744 -2.047292 -0.644932 0.445479 0.820399 -0.358348
-0.816682 -2.039480 -0.894932 0.000000 0.722587 -0.691275
-0.816682 -1.883230 -0.629307 0.000000 0.952361 -0.304941
-1.152619 -2.047292 -0.644932 -0.445479 0.820399 -0.358348
-1.160432 -2.172292 -0.848057 -0.522263 0.547685 -0.653615
-0.472932 -2.172292 -0.848057 0.522263 0.547685 -0.653615
-0.816682 -2.359792 -1.082432 0.000000 0.336528 -0.941649
-1.113557 -2.445730 -1.012120 -0.507065 0.203314 -0.837581
-0.605744 -2.875417 -1.090245 0.572680 -0.011994 -0.819666
-0.816682 -2.898855 -1.160557 0.000000 0.183294 -0.983032
-1.027619 -2.875417 -1.090245 -0.572680 -0.011994 -0.819666
-0.082307 -2.781667 -0.746495 0.721030 -0.065065 -0.689810
0.034881 -2.766042 -0.465245 0.985015 -0.063051 -0.160466
-1.551057 -2.781667 -0.746495 -0.721030 -0.065065 -0.689810
-1.668244 -2.766042 -0.465245 -0.985015 -0.063051 -0.160466
-0.355744 -2.008230 -0.262120 0.473006 0.863216 0.176305
-0.816682 -1.859792 -0.137120 0.000000 0.930967 0.365032
-1.277619 -2.008230 -0.262120 -0.473006 0.863216 0.176305
-0.363557 -2.945730 0.151943 0.442152 -0.542344 0.714347
-0.816682 -2.633230 0.284755 -0.013092 -0.023164 0.999634
-0.816682 -3.000417 0.198818 0.000000 -0.556810 0.830622
-1.269807 -2.945730 0.151943 -0.444227 -0.527085 0.724418
-1.269807 -2.641042 0.230068 -0.413495 -0.039460 0.909635
-0.363557 -2.328542 0.167568 0.389630 0.456191 0.800012
-0.816682 -2.164480 0.198818 0.000000 0.551378 0.834223
-1.269807 -2.328542 0.167568 -0.391247 0.426832 0.815271
-0.090119 -3.047292 -0.293370 0.771722 -0.078494 0.631062
-0.183869 -2.992605 -0.246495 0.444411 -0.425031 0.788537
-1.543244 -3.047292 -0.293370 -0.771722 -0.078494 0.631062
-1.449494 -2.992605 -0.246495 -0.444411 -0.425031 0.788537
-0.019807 -2.836355 -0.137120 0.741752 -0.427839 0.516434
-0.176057 -2.766042 0.003505 0.675344 -0.324473 0.662252
-1.613557 -2.836355 -0.137120 -0.741752 -0.427839 0.516434
-1.457307 -2.766042 0.003505 -0.668172 -0.319498 0.671865
-0.019807 -2.594167 -0.082432 0.848628 0.014008 0.528764
-0.176057 -2.516042 0.050380 0.695090 0.077731 0.714652
-1.613557 -2.594167 -0.082432 -0.848628 0.014008 0.528764
-1.457307 -2.516042 0.050380 -0.678396 0.069521 0.731376
-0.019807 -2.351980 -0.160557 0.872158 0.374645 0.314554
-0.176057 -2.266042 -0.019932 0.607532 0.553575 0.569567
-1.613557 -2.351980 -0.160557 -0.872158 0.374645 0.314554
-1.457307 -2.266042 -0.019932 -0.607532 0.553575 0.569567
-0.199494 -2.125417 -0.371495 0.619648 0.782525 -0.060457
-0.043244 -2.273855 -0.433995 0.670766 0.740257 -0.045289
-1.433869 -2.125417 -0.371495 -0.619648 0.782525 -0.060457
-0.369183 -2.614276 0.262118 0.389508 -0.005066 0.920988
-0.355744 -3.141042 -0.176182 0.340648 -0.322306 0.883206
-1.277619 -3.141042 -0.176182 -0.340648 -0.322306 0.883206
-0.816682 -3.281667 -0.129307 0.000000 -0.848445 0.529252
0.042693 -2.664480 -0.379307 0.998321 0.050172 -0.028260
-1.676057 -2.664480 -0.379307 -0.998321 0.050172 -0.028260
0.003631 -2.508230 -0.371495 0.840297 -0.224586 0.493362
-1.636994 -2.508230 -0.371495 -0.840297 -0.224586 0.493362
-0.519807 -2.445730 -1.012120 0.507065 0.203314 -0.837581
-0.410432 -2.859792 -0.871495 0.579028 -0.142705 -0.802698
-1.222932 -2.859792 -0.871495 -0.579028 -0.142705 -0.802698
-1.246369 -2.500417 -0.894932 -0.563280 0.121311 -0.817286
-0.222932 -2.547292 -0.824620 0.312296 -0.001160 -0.949950
-1.410432 -2.547292 -0.824620 -0.312296 -0.001160 -0.949950
-0.605744 -3.180105 -0.926182 0.887173 -0.433607 -0.157720
-0.176057 -2.281667 -0.707432 0.325510 0.728355 -0.602924
-1.457307 -2.281667 -0.707432 -0.325510 0.728355 -0.602924
-1.301057 -2.164480 -0.676182 -0.529221 0.681722 -0.505112
-0.386994 -2.500417 -0.894932 0.563280 0.121311 -0.817286
-0.332307 -2.164480 -0.676182 0.529221 0.681722 -0.505112
0.073943 -2.476980 -0.293370 -0.279244 -0.575884 0.768303
0.198943 -2.422292 -0.285557 0.551164 -0.830622 -0.078768
0.206756 -2.398855 -0.223057 0.018799 -0.488632 0.872250
-1.707307 -2.476980 -0.293370 0.279244 -0.575884 0.768303
-1.832307 -2.422292 -0.285557 -0.551164 -0.830622 -0.078768
-1.738557 -2.492605 -0.340245 -0.449232 -0.892575 -0.038331
0.370818 -2.320730 -0.262120 0.321451 -0.942381 -0.092318
0.417693 -2.289480 -0.191807 0.383557 -0.328776 0.862972
-2.004182 -2.320730 -0.262120 -0.321451 -0.942381 -0.092318
-1.840119 -2.398855 -0.223057 -0.018799 -0.488632 0.872250
-2.051057 -2.289480 -0.191807 -0.383557 -0.328776 0.862972
0.534881 -2.289480 -0.379307 0.778802 -0.604389 0.167791
-2.168244 -2.289480 -0.379307 -0.778802 -0.604389 0.167791
-2.082307 -2.305105 -0.410557 0.154454 -0.980193 -0.123875
0.448943 -2.305105 -0.410557 -0.154454 -0.980193 -0.123875
0.464568 -2.281667 -0.644932 0.652608 -0.588794 -0.476821
-2.097932 -2.281667 -0.644932 -0.652608 -0.588794 -0.476821
-2.027619 -2.305105 -0.621495 0.041108 -0.949553 0.310831
0.394256 -2.305105 -0.621495 -0.041108 -0.949553 0.310831
0.222381 -2.383230 -0.801182 0.502884 -0.370312 -0.780999
-1.855744 -2.383230 -0.801182 -0.502884 -0.370312 -0.780999
-1.847932 -2.406667 -0.738682 -0.538377 -0.789239 0.295267
0.011443 -2.578542 -0.769932 0.329936 -0.889645 0.315653
-0.043244 -2.586355 -0.840245 0.029542 -0.771905 -0.634999
-1.644807 -2.578542 -0.769932 -0.329936 -0.889645 0.315653
-1.590119 -2.586355 -0.840245 -0.029542 -0.771905 -0.634999
0.214568 -2.406667 -0.738682 0.538377 -0.789239 0.295267
0.066131 -2.500417 -0.723057 0.162877 -0.487014 0.858028
-1.699494 -2.500417 -0.723057 -0.162877 -0.487014 0.858028
0.222381 -2.344167 -0.699620 -0.186804 -0.235084 0.953825
-1.855744 -2.344167 -0.699620 0.186804 -0.235084 0.953825
0.417693 -2.266042 -0.449620 -0.984741 -0.142613 -0.099582
-2.051057 -2.266042 -0.449620 0.984741 -0.142613 -0.099582
-2.004182 -2.266042 -0.605870 0.762139 0.019318 0.647084
0.355193 -2.273855 -0.340245 -0.149571 -0.649464 -0.745506
-1.988557 -2.273855 -0.340245 0.149571 -0.649464 -0.745506
0.206756 -2.351980 -0.355870 0.560442 -0.499100 -0.660878
-1.840119 -2.351980 -0.355870 -0.560442 -0.499100 -0.660878
0.128631 -2.422292 -0.394932 0.684164 -0.472182 -0.555773
-1.761994 -2.422292 -0.394932 -0.684194 -0.472182 -0.555773
-0.090119 -2.641042 -0.699620 0.857204 0.148289 -0.493118
-1.543244 -2.641042 -0.699620 -0.857204 0.148289 -0.493118
-1.535432 -2.539480 -0.723057 -0.731193 -0.672475 0.114414
-0.097932 -2.539480 -0.723057 0.731193 -0.672475 0.114414
0.105193 -2.492605 -0.340245 0.449232 -0.892575 -0.038331
-0.004182 -2.437917 -0.715245 0.599841 -0.613880 0.513138
-1.629182 -2.437917 -0.715245 -0.599841 -0.613880 0.513138
-0.097932 -2.523855 -0.660557 0.960936 -0.249855 -0.118839
0.027068 -2.437917 -0.683995 0.842036 -0.509781 -0.176244
-1.535432 -2.523855 -0.660557 -0.960936 -0.249855 -0.118839
-0.058869 -2.437917 -0.605870 0.851466 -0.522752 0.041353
0.003631 -2.437917 -0.613682 0.481368 -0.604816 0.634388
-1.660432 -2.437917 -0.683995 -0.842036 -0.509781 -0.176244
-1.574494 -2.437917 -0.605870 -0.851466 -0.522752 0.041353
-1.636994 -2.437917 -0.613682 -0.481368 -0.604816 0.634388
-0.019807 -2.500417 -0.496495 0.830256 -0.284982 -0.478957
0.019256 -2.437917 -0.527745 0.686361 -0.374554 -0.623371
-1.613557 -2.500417 -0.496495 -0.830256 -0.284982 -0.478957
0.073943 -2.445730 -0.457432 0.726066 -0.473128 -0.498917
0.027068 -2.500417 -0.410557 0.794916 -0.560076 -0.233192
-1.707307 -2.445730 -0.457432 -0.726066 -0.473128 -0.498917
-1.652619 -2.437917 -0.527745 -0.686361 -0.374554 -0.623371
-1.660432 -2.500417 -0.410557 -0.794916 -0.560076 -0.233192
0.073943 -2.391042 -0.465245 0.659291 -0.588061 -0.468490
0.136443 -2.367605 -0.410557 0.648213 -0.634724 -0.420576
-1.707307 -2.391042 -0.465245 -0.659291 -0.588061 -0.468490
-1.769807 -2.367605 -0.410557 -0.648213 -0.634724 -0.420576
-1.660432 -2.391042 -0.527745 -0.572527 -0.704733 -0.418928
-0.051057 -2.391042 -0.605870 0.758354 -0.594806 0.266518
0.027068 -2.391042 -0.527745 0.572527 -0.704733 -0.418928
-1.582307 -2.391042 -0.605870 -0.758354 -0.594806 0.266518
-1.644807 -2.391042 -0.621495 -0.449232 -0.808618 0.379864
0.011443 -2.391042 -0.621495 0.449232 -0.808618 0.379864
-1.668244 -2.391042 -0.683995 -0.292917 -0.881222 0.370922
-0.004182 -2.391042 -0.715245 0.644978 -0.698386 0.310129
0.034881 -2.391042 -0.683995 0.292917 -0.881222 0.370922
-1.629182 -2.391042 -0.715245 -0.644978 -0.698386 0.310129
0.066131 -2.445730 -0.715245 -0.033113 -0.325602 0.944914
-1.699494 -2.445730 -0.715245 0.033113 -0.325602 0.944914
0.222381 -2.297292 -0.371495 0.461776 -0.823664 -0.329142
-1.855744 -2.297292 -0.371495 -0.461776 -0.823664 -0.329142
0.370818 -2.226980 -0.355870 -0.262398 -0.804346 -0.533067
-2.004182 -2.226980 -0.355870 0.262398 -0.804346 -0.533067
0.441131 -2.219167 -0.457432 -0.752861 -0.657277 -0.033784
-2.074494 -2.219167 -0.457432 0.752861 -0.657277 -0.033784
0.394256 -2.226980 -0.613682 -0.583117 -0.640339 0.499893
0.370818 -2.266042 -0.605870 -0.762139 0.019318 0.647084
-2.027619 -2.226980 -0.613682 0.583117 -0.640339 0.499893
0.230193 -2.289480 -0.699620 0.065004 -0.707358 0.703848
-1.863557 -2.289480 -0.699620 -0.065004 -0.707358 0.703848
0.073943 -2.383230 -0.590245 0.195105 -0.979980 0.038942
-1.707307 -2.383230 -0.590245 -0.195105 -0.979980 0.038942
-1.754182 -2.375417 -0.637120 -0.408429 -0.903836 0.127262
0.120818 -2.375417 -0.637120 0.408429 -0.903836 0.127262
0.144256 -2.359792 -0.527745 0.334666 -0.942289 -0.004578
-1.777619 -2.359792 -0.527745 -0.334666 -0.942289 -0.004578
-1.816682 -2.344167 -0.574620 -0.444807 -0.890683 -0.093692
0.238006 -2.328542 -0.512120 0.314371 -0.943602 -0.103732
0.198943 -2.336355 -0.465245 0.334300 -0.936369 0.106784
-1.871369 -2.328542 -0.512120 -0.314371 -0.943602 -0.103732
-1.832307 -2.336355 -0.465245 -0.334300 -0.936369 0.106784
0.269256 -2.320730 -0.426182 0.289651 -0.903500 0.315806
-1.902619 -2.320730 -0.426182 -0.289651 -0.903500 0.315806
-1.926057 -2.320730 -0.488682 -0.383129 -0.921140 -0.068514
0.292693 -2.320730 -0.488682 0.383129 -0.921140 -0.068514
-0.027619 -2.383230 -0.824620 -0.098849 0.532151 -0.840846
0.222381 -2.219167 -0.785557 -0.025269 0.733116 -0.679586
-1.605744 -2.383230 -0.824620 0.098849 0.532151 -0.840846
-1.855744 -2.219167 -0.785557 0.025269 0.733116 -0.679586
0.495818 -2.180105 -0.644932 0.636586 0.583392 -0.504318
-2.129182 -2.180105 -0.644932 -0.636586 0.583392 -0.504318
0.550506 -2.211355 -0.402745 0.925260 0.367992 0.091830
-2.183869 -2.211355 -0.402745 -0.925260 0.367992 0.091830
0.433318 -2.164480 -0.230870 0.286996 0.748497 0.597766
-2.066682 -2.164480 -0.230870 -0.286996 0.748497 0.597766
0.206756 -2.226980 -0.262120 -0.414228 0.724479 0.550890
-1.840119 -2.226980 -0.262120 0.414228 0.724479 0.550890
0.042693 -2.328542 -0.316807 -0.650044 0.485336 0.584643
-1.676057 -2.328542 -0.316807 0.650044 0.485336 0.584643
-1.590119 -2.273855 -0.433995 -0.670766 0.740257 -0.045289
-0.980744 -3.484792 -0.285557 -0.367840 -0.885556 -0.283608
0.183318 -2.344167 -0.574620 0.444807 -0.890683 -0.093692
3 0 1 2
3 3 4 5
3 2 6 7
3 8 5 9
3 1 10 6
3 11 3 8
3 12 13 1
3 14 15 3
3 16 17 13
3 18 19 14
3 13 20 10
3 21 14 11
3 22 20 17
3 23 21 24
3 25 22 17
3 23 26 18
3 27 28 22
3 29 30 23
3 28 31 22
3 29 24 32
3 33 34 28
3 35 32 36
3 37 28 38
3 39 29 35
3 40 33 37
3 41 35 42
3 43 44 33
3 42 36 45
3 2 46 43
3 5 45 9
3 0 43 40
3 4 42 5
3 40 47 0
3 41 48 49
3 37 50 40
3 39 49 51
3 38 52 37
3 53 51 54
3 27 55 38
3 30 54 56
3 27 57 58
3 59 30 56
3 25 60 57
3 61 26 59
3 16 62 60
3 63 19 61
3 12 47 62
3 48 15 63
3 64 62 47
3 48 63 65
3 60 62 64
3 65 63 61
3 64 57 60
3 61 59 65
3 64 58 57
3 59 56 65
3 64 55 58
3 56 54 65
3 64 52 55
3 54 51 65
3 64 50 52
3 51 49 65
3 64 47 50
3 49 48 65
3 66 67 68
3 69 67 70
3 71 68 72
3 73 74 69
3 75 71 72
3 73 76 77
3 78 79 75
3 80 81 76
3 82 83 78
3 84 85 81
3 86 87 88
3 89 90 91
3 92 87 93
3 94 89 95
3 92 96 97
3 98 94 95
3 99 96 100
3 101 98 102
3 103 104 99
3 105 102 106
3 107 108 103
3 109 106 110
3 107 111 112
3 113 109 110
3 114 111 115
3 116 113 117
3 118 119 114
3 120 117 121
3 122 123 118
3 122 121 124
3 125 123 126
3 127 121 117
3 125 111 119
3 113 127 117
3 112 128 129
3 110 130 113
3 108 129 131
3 106 132 110
3 104 131 133
3 102 134 106
3 96 133 135
3 98 136 102
3 97 135 137
3 95 138 98
3 87 137 139
3 89 140 95
3 88 139 141
3 91 142 89
3 141 143 88
3 143 144 91
3 123 145 126
3 121 146 124
3 145 147 148
3 147 146 149
3 150 147 143
3 151 147 149
3 152 70 66
3 70 153 69
3 154 66 71
3 69 155 73
3 154 79 156
3 155 80 73
3 157 158 83
3 159 160 84
3 156 83 158
3 84 161 159
3 162 163 164
3 162 165 166
3 163 167 158
3 165 167 166
3 156 167 168
3 161 167 159
3 169 170 164
3 171 172 173
3 174 175 169
3 176 177 172
3 178 174 179
3 180 177 181
3 182 179 183
3 182 179 180
3 164 184 162
3 173 184 171
3 170 185 184
3 171 185 186
3 182 187 178
3 188 182 180
3 178 189 190
3 191 180 181
3 189 175 190
3 191 176 192
3 175 193 170
3 186 176 171
3 194 187 195
3 192 188 191
3 195 193 194
3 186 195 192
3 179 88 143
3 91 179 143
3 174 196 88
3 197 177 91
3 164 196 169
3 173 197 198
3 163 199 164
3 165 198 160
3 200 157 82
3 201 160 198
3 202 199 200
3 203 198 197
3 86 196 202
3 197 90 203
3 168 204 156
3 168 205 206
3 154 204 207
3 205 155 208
3 152 207 209
3 208 153 210
3 211 209 212
3 210 211 212
3 209 213 212
3 210 213 214
3 209 215 216
3 217 210 214
3 207 218 215
3 219 208 217
3 206 218 204
3 206 219 220
3 220 216 218
3 214 220 219
3 218 216 215
3 217 214 219
3 148 221 222
3 223 149 224
3 145 222 225
3 224 146 226
3 145 227 126
3 146 228 226
3 141 221 150
3 144 223 229
3 141 230 231
3 232 144 229
3 139 233 230
3 234 142 232
3 137 235 233
3 236 140 234
3 135 237 235
3 238 138 236
3 131 237 133
3 134 238 239
3 129 240 131
3 132 239 241
3 129 242 243
3 244 132 241
3 128 245 242
3 246 130 244
3 125 227 245
3 228 127 246
3 227 247 245
3 228 248 249
3 242 247 250
3 248 244 251
3 242 252 243
3 244 253 251
3 243 254 240
3 241 255 253
3 237 254 256
3 255 238 257
3 237 258 235
3 238 259 257
3 233 258 260
3 259 234 261
3 233 262 230
3 234 263 261
3 230 264 231
3 232 265 263
3 221 264 266
3 265 223 267
3 227 268 269
3 270 228 249
3 225 271 268
3 272 226 270
3 222 266 271
3 267 224 272
3 122 273 274
3 275 122 274
3 118 276 273
3 277 120 275
3 115 276 114
3 278 277 279
3 107 280 115
3 109 279 281
3 103 282 107
3 105 281 283
3 103 284 285
3 286 105 283
3 100 284 99
3 287 286 288
3 100 289 290
3 291 287 288
3 92 292 289
3 293 94 291
3 294 295 296
3 294 297 298
3 296 299 300
3 296 301 297
3 300 302 303
3 300 304 301
3 68 303 302
3 303 74 304
3 72 302 305
3 304 77 306
3 75 305 307
3 306 76 308
3 78 307 309
3 308 81 310
3 307 295 309
3 297 308 310
3 305 299 307
3 306 301 304
3 309 311 312
3 310 298 297
3 82 309 312
3 310 85 313
3 314 202 200
3 315 203 316
3 312 200 82
3 313 201 315
3 202 317 86
3 203 318 316
3 317 93 86
3 318 319 293
3 320 321 322
3 323 321 324
3 325 326 321
3 324 326 327
3 326 328 329
3 330 326 329
3 329 311 294
3 298 329 294
3 311 314 312
3 298 315 330
3 290 331 332
3 333 288 334
3 335 322 336
3 337 322 323
3 338 339 340
3 341 339 342
3 339 343 344
3 345 339 344
3 344 335 336
3 337 344 336
3 285 346 347
3 348 283 349
3 347 350 351
3 352 349 353
3 351 354 355
3 356 353 357
3 355 358 359
3 360 357 361
3 362 358 363
3 364 360 361
3 335 359 362
3 361 337 364
3 343 355 359
3 357 345 361
3 365 351 355
3 353 342 357
3 338 347 351
3 349 341 353
3 285 366 282
3 283 367 349
3 366 340 368
3 367 340 341
3 273 280 282
3 279 275 281
3 273 366 368
3 367 275 368
3 274 273 368
3 368 275 274
3 290 346 284
3 288 348 334
3 332 350 346
3 352 334 348
3 369 354 350
3 356 370 352
3 358 371 363
3 360 372 356
3 373 374 328
3 327 375 376
3 374 377 331
3 375 378 376
3 289 374 331
3 375 291 333
3 292 314 374
3 315 293 375
3 314 328 374
3 375 330 315
3 292 317 379
3 316 318 293
3 380 362 363
3 381 364 382
3 362 320 335
3 364 323 382
3 383 380 377
3 376 381 382
3 325 383 373
3 324 376 382
3 320 384 325
3 324 382 323
3 385 386 387
3 388 389 390
3 387 391 392
3 393 394 395
3 391 396 392
3 393 397 398
3 399 400 396
3 398 401 402
3 403 404 400
3 402 405 406
3 404 407 408
3 409 405 410
3 411 412 407
3 413 406 409
3 403 414 411
3 415 402 406
3 416 403 399
3 417 402 418
3 419 399 391
3 420 398 417
3 421 391 386
3 422 393 420
3 386 423 421
3 424 389 422
3 377 425 331
3 378 426 427
3 408 428 377
3 410 427 409
3 332 425 369
3 426 334 370
3 371 429 385
3 390 372 388
3 407 430 428
3 431 409 427
3 432 430 433
3 434 431 427
3 435 433 436
3 437 438 439
3 440 435 441
3 442 438 434
3 440 443 444
3 442 445 446
3 444 423 429
3 447 424 445
3 369 444 371
3 447 370 372
3 425 440 369
3 426 442 434
3 425 428 432
3 434 427 426
3 423 448 449
3 450 424 451
3 441 448 443
3 446 450 452
3 441 453 454
3 455 446 452
3 436 453 435
3 439 455 456
3 433 457 436
3 437 456 458
3 433 459 460
3 461 437 458
3 430 462 459
3 463 431 461
3 421 449 464
3 451 422 465
3 419 464 466
3 465 420 467
3 416 466 468
3 467 417 469
3 416 470 471
3 417 472 469
3 471 473 414
3 418 474 472
3 414 462 412
3 415 463 474
3 460 475 457
3 458 476 477
3 478 479 475
3 477 480 481
3 479 482 483
3 484 480 485
3 482 486 483
3 484 487 488
3 464 483 486
3 485 465 487
3 479 449 448
3 480 451 485
3 454 479 448
3 452 480 476
3 457 454 453
3 452 456 455
3 462 460 459
3 463 458 477
3 473 478 462
3 477 474 463
3 482 473 470
3 484 474 481
3 489 470 468
3 488 472 484
3 466 489 468
3 488 467 469
3 464 486 466
3 467 487 465
3 404 490 491
3 492 405 493
3 400 491 494
3 493 401 495
3 400 496 396
3 401 497 495
3 396 498 392
3 397 499 497
3 392 500 387
3 395 501 499
3 387 502 385
3 394 503 501
3 491 502 500
3 493 503 492
3 500 494 491
3 495 501 493
3 498 496 494
3 495 497 499
3 371 502 363
3 372 503 388
3 363 490 380
3 492 504 381
3 377 490 408
3 492 378 410
3 0 12 1
3 3 15 4
3 2 1 6
3 8 3 5
3 1 13 10
3 11 14 3
3 12 16 13
3 14 19 15
3 16 25 17
3 18 26 19
3 13 17 20
3 21 18 14
3 22 31 20
3 23 18 21
3 25 27 22
3 23 30 26
3 27 38 28
3 29 53 30
3 28 34 31
3 29 23 24
3 33 44 34
3 35 29 32
3 37 33 28
3 39 53 29
3 40 43 33
3 41 39 35
3 43 46 44
3 42 35 36
3 2 7 46
3 5 42 45
3 0 2 43
3 4 41 42
3 40 50 47
3 41 4 48
3 37 52 50
3 39 41 49
3 38 55 52
3 53 39 51
3 27 58 55
3 30 53 54
3 27 25 57
3 59 26 30
3 25 16 60
3 61 19 26
3 16 12 62
3 63 15 19
3 12 0 47
3 48 4 15
3 66 70 67
3 69 74 67
3 71 66 68
3 73 77 74
3 75 79 71
3 73 80 76
3 78 83 79
3 80 84 81
3 82 157 83
3 84 160 85
3 86 93 87
3 89 319 90
3 92 97 87
3 94 319 89
3 92 100 96
3 98 287 94
3 99 104 96
3 101 287 98
3 103 108 104
3 105 101 102
3 107 112 108
3 109 105 106
3 107 115 111
3 113 278 109
3 114 119 111
3 116 278 113
3 118 123 119
3 120 116 117
3 122 124 123
3 122 120 121
3 125 119 123
3 127 505 121
3 125 128 111
3 113 130 127
3 112 111 128
3 110 132 130
3 108 112 129
3 106 134 132
3 104 108 131
3 102 136 134
3 96 104 133
3 98 138 136
3 97 96 135
3 95 140 138
3 87 97 137
3 89 142 140
3 88 87 139
3 91 144 142
3 141 150 143
3 143 151 144
3 123 124 145
3 121 505 146
3 145 124 147
3 147 124 146
3 150 148 147
3 151 143 147
3 152 211 70
3 70 211 153
3 154 152 66
3 69 153 155
3 154 71 79
3 155 161 80
3 157 163 158
3 159 165 160
3 156 79 83
3 84 80 161
3 162 166 163
3 162 173 165
3 163 166 167
3 165 159 167
3 156 158 167
3 161 168 167
3 169 175 170
3 171 176 172
3 174 190 175
3 176 181 177
3 178 190 174
3 180 179 177
3 182 178 179
3 164 170 184
3 173 162 184
3 170 193 185
3 171 184 185
3 182 195 187
3 188 195 182
3 178 187 189
3 191 188 180
3 189 194 175
3 191 181 176
3 175 194 193
3 186 192 176
3 194 189 187
3 192 195 188
3 195 185 193
3 186 185 195
3 179 174 88
3 91 177 179
3 174 169 196
3 197 172 177
3 164 199 196
3 173 172 197
3 163 157 199
3 165 173 198
3 200 199 157
3 201 85 160
3 202 196 199
3 203 201 198
3 86 88 196
3 197 91 90
3 168 206 204
3 168 161 205
3 154 156 204
3 205 161 155
3 152 154 207
3 208 155 153
3 211 152 209
3 210 153 211
3 209 216 213
3 210 212 213
3 209 207 215
3 217 208 210
3 207 204 218
3 219 205 208
3 206 220 218
3 206 205 219
3 220 213 216
3 214 213 220
3 148 150 221
3 223 151 149
3 145 148 222
3 224 149 146
3 145 225 227
3 146 505 228
3 141 231 221
3 144 151 223
3 141 139 230
3 232 142 144
3 139 137 233
3 234 140 142
3 137 135 235
3 236 138 140
3 135 133 237
3 238 136 138
3 131 240 237
3 134 136 238
3 129 243 240
3 132 134 239
3 129 128 242
3 244 130 132
3 128 125 245
3 246 127 130
3 125 126 227
3 228 505 127
3 227 269 247
3 228 246 248
3 242 245 247
3 248 246 244
3 242 250 252
3 244 241 253
3 243 252 254
3 241 239 255
3 237 240 254
3 255 239 238
3 237 256 258
3 238 236 259
3 233 235 258
3 259 236 234
3 233 260 262
3 234 232 263
3 230 262 264
3 232 229 265
3 221 231 264
3 265 229 223
3 227 225 268
3 270 226 228
3 225 222 271
3 272 224 226
3 222 221 266
3 267 223 224
3 122 118 273
3 275 120 122
3 118 114 276
3 277 116 120
3 115 280 276
3 278 116 277
3 107 282 280
3 109 278 279
3 103 285 282
3 105 109 281
3 103 99 284
3 286 101 105
3 100 290 284
3 287 101 286
3 100 92 289
3 291 94 287
3 92 93 292
3 293 319 94
3 294 311 295
3 294 296 297
3 296 295 299
3 296 300 301
3 300 299 302
3 300 303 304
3 68 67 303
3 303 67 74
3 72 68 302
3 304 74 77
3 75 72 305
3 306 77 76
3 78 75 307
3 308 76 81
3 307 299 295
3 297 301 308
3 305 302 299
3 306 308 301
3 309 295 311
3 310 313 298
3 82 78 309
3 310 81 85
3 314 379 202
3 315 201 203
3 312 314 200
3 313 85 201
3 202 379 317
3 203 90 318
3 317 292 93
3 318 90 319
3 320 325 321
3 323 322 321
3 325 373 326
3 324 321 326
3 326 373 328
3 330 327 326
3 329 328 311
3 298 330 329
3 311 328 314
3 298 313 315
3 290 289 331
3 333 291 288
3 335 320 322
3 337 336 322
3 338 365 339
3 341 340 339
3 339 365 343
3 345 342 339
3 344 343 335
3 337 345 344
3 285 284 346
3 348 286 283
3 347 346 350
3 352 348 349
3 351 350 354
3 356 352 353
3 355 354 358
3 360 356 357
3 362 359 358
3 364 504 360
3 335 343 359
3 361 345 337
3 343 365 355
3 357 342 345
3 365 338 351
3 353 341 342
3 338 366 347
3 349 367 341
3 285 347 366
3 283 281 367
3 366 338 340
3 367 368 340
3 273 276 280
3 279 277 275
3 273 282 366
3 367 281 275
3 290 332 346
3 288 286 348
3 332 369 350
3 352 370 334
3 369 371 354
3 356 372 370
3 358 354 371
3 360 504 372
3 373 383 374
3 327 330 375
3 374 383 377
3 375 333 378
3 289 292 374
3 375 293 291
3 292 379 314
3 315 316 293
3 380 384 362
3 381 504 364
3 362 384 320
3 364 337 323
3 383 384 380
3 376 378 381
3 325 384 383
3 324 327 376
3 385 429 386
3 388 394 389
3 387 386 391
3 393 389 394
3 391 399 396
3 393 395 397
3 399 403 400
3 398 397 401
3 403 411 404
3 402 401 405
3 404 411 407
3 409 406 405
3 411 414 412
3 413 415 406
3 403 471 414
3 415 418 402
3 416 471 403
3 417 398 402
3 419 416 399
3 420 393 398
3 421 419 391
3 422 389 393
3 386 429 423
3 424 390 389
3 377 428 425
3 378 333 426
3 408 407 428
3 410 378 427
3 332 331 425
3 426 333 334
3 371 444 429
3 390 447 372
3 407 412 430
3 431 413 409
3 432 428 430
3 434 437 431
3 435 432 433
3 437 434 438
3 440 432 435
3 442 446 438
3 440 441 443
3 442 447 445
3 444 443 423
3 447 390 424
3 369 440 444
3 447 442 370
3 425 432 440
3 426 370 442
3 423 443 448
3 450 445 424
3 441 454 448
3 446 445 450
3 441 435 453
3 455 438 446
3 436 457 453
3 439 438 455
3 433 460 457
3 437 439 456
3 433 430 459
3 461 431 437
3 430 412 462
3 463 413 431
3 421 423 449
3 451 424 422
3 419 421 464
3 465 422 420
3 416 419 466
3 467 420 417
3 416 468 470
3 417 418 472
3 471 470 473
3 418 415 474
3 414 473 462
3 415 413 463
3 460 478 475
3 458 456 476
3 478 506 479
3 477 476 480
3 479 506 482
3 484 481 480
3 482 489 486
3 484 485 487
3 464 449 483
3 485 451 465
3 479 483 449
3 480 450 451
3 454 475 479
3 452 450 480
3 457 475 454
3 452 476 456
3 462 478 460
3 463 461 458
3 473 506 478
3 477 481 474
3 482 506 473
3 484 472 474
3 489 482 470
3 488 469 472
3 466 486 489
3 488 487 467
3 404 408 490
3 492 410 405
3 400 404 491
3 493 405 401
3 400 494 496
3 401 397 497
3 396 496 498
3 397 395 499
3 392 498 500
3 395 394 501
3 387 500 502
3 394 388 503
3 491 490 502
3 493 501 503
3 500 498 494
3 495 499 501
3 371 385 502
3 372 504 503
3 363 502 490
3 492 503 504
3 377 380 490
3 492 381 378
